<svg xmlns="http://www.w3.org/2000/svg" viewBox="0 0 48 48" width="48" height="48">
  <!-- Background circle -->
  <circle cx="24" cy="24" r="24" fill="#cc0000"/>

  <!-- Brain shape (simplified) -->
  <g fill="none" stroke="#fff" stroke-width="2.2" stroke-linecap="round" stroke-linejoin="round">
    <!-- Left hemisphere -->
    <path d="M24 14
      C20 14 15 16 14 20
      C12 22 12 25 13 27
      C11 29 12 33 15 34
      C16 36 19 37 21 36
      C22 38 24 38 24 38"/>
    <!-- Right hemisphere -->
    <path d="M24 14
      C28 14 33 16 34 20
      C36 22 36 25 35 27
      C37 29 36 33 33 34
      C32 36 29 37 27 36
      C26 38 24 38 24 38"/>
    <!-- Center divide -->
    <line x1="24" y1="14" x2="24" y2="38"/>
    <!-- Brain folds left -->
    <path d="M17 22 C18 20 20 21 19 23"/>
    <path d="M15 28 C17 26 19 28 17 30"/>
    <!-- Brain folds right -->
    <path d="M31 22 C30 20 28 21 29 23"/>
    <path d="M33 28 C31 26 29 28 31 30"/>
  </g>

  <!-- Red ban slash overlay -->
  <line x1="10" y1="38" x2="38" y2="10" stroke="#fff" stroke-width="3" stroke-linecap="round" opacity="0.9"/>
</svg>
