<?xml version="1.0" encoding="UTF-8" standalone="no"?>
<svg
   viewBox="0 0 48 48"
   width="96"
   height="96"
   version="1.1"
   id="svg6"
   sodipodi:docname="icon96.svg"
   inkscape:export-filename="icon.png"
   inkscape:export-xdpi="96"
   inkscape:export-ydpi="96"
   inkscape:version="1.4.3 (0d15f75042, 2025-12-25)"
   xmlns:inkscape="http://www.inkscape.org/namespaces/inkscape"
   xmlns:sodipodi="http://sodipodi.sourceforge.net/DTD/sodipodi-0.dtd"
   xmlns="http://www.w3.org/2000/svg"
   xmlns:svg="http://www.w3.org/2000/svg">
  <defs
     id="defs6" />
  <sodipodi:namedview
     id="namedview6"
     pagecolor="#ffffff"
     bordercolor="#000000"
     borderopacity="0.25"
     inkscape:showpageshadow="2"
     inkscape:pageopacity="0.0"
     inkscape:pagecheckerboard="0"
     inkscape:deskcolor="#d1d1d1"
     inkscape:zoom="19.041667"
     inkscape:cx="23.973742"
     inkscape:cy="24"
     inkscape:window-width="2867"
     inkscape:window-height="1132"
     inkscape:window-x="0"
     inkscape:window-y="0"
     inkscape:window-maximized="1"
     inkscape:current-layer="svg6" />
  <!-- Background circle -->
  <circle
     cx="24"
     cy="24"
     r="24"
     fill="#cc0000"
     id="circle1" />
  <!-- Brain shape (simplified) -->
  <g
     fill="none"
     stroke="#ffffff"
     stroke-width="2.2"
     stroke-linecap="round"
     stroke-linejoin="round"
     id="g6">
    <!-- Left hemisphere -->
    <path
       d="m 24,14 c -4,0 -9,2 -10,6 -2,2 -2,5 -1,7 -2,2 -1,6 2,7 1,2 4,3 6,2 1,2 3,2 3,2"
       id="path1" />
    <!-- Right hemisphere -->
    <path
       d="m 24,14 c 4,0 9,2 10,6 2,2 2,5 1,7 2,2 1,6 -2,7 -1,2 -4,3 -6,2 -1,2 -3,2 -3,2"
       id="path2" />
    <!-- Center divide -->
    <line
       x1="24"
       y1="14"
       x2="24"
       y2="38"
       id="line2" />
    <!-- Brain folds left -->
    <path
       d="m 17,22 c 1,-2 3,-1 2,1"
       id="path3" />
    <path
       d="m 15,28 c 2,-2 4,0 2,2"
       id="path4" />
    <!-- Brain folds right -->
    <path
       d="m 31,22 c -1,-2 -3,-1 -2,1"
       id="path5" />
    <path
       d="m 33,28 c -2,-2 -4,0 -2,2"
       id="path6" />
  </g>
  <!-- Red ban slash overlay -->
  <line
     x1="10"
     y1="38"
     x2="38"
     y2="10"
     stroke="#ffffff"
     stroke-width="3"
     stroke-linecap="round"
     opacity="0.9"
     id="line6" />
</svg>
